<?xml version="1.0" encoding="utf-8"?>
<!-- Generator: Adobe Illustrator 16.0.0, SVG Export Plug-In . SVG Version: 6.00 Build 0)  -->
<!DOCTYPE svg PUBLIC "-//W3C//DTD SVG 1.1//EN" "http://www.w3.org/Graphics/SVG/1.1/DTD/svg11.dtd">
<svg version="1.1"
	 id="svg2" xmlns:dc="http://purl.org/dc/elements/1.1/" xmlns:svg="http://www.w3.org/2000/svg" xmlns:sodipodi="http://sodipodi.sourceforge.net/DTD/sodipodi-0.dtd" xmlns:cc="http://creativecommons.org/ns#" xmlns:inkscape="http://www.inkscape.org/namespaces/inkscape" xmlns:rdf="http://www.w3.org/1999/02/22-rdf-syntax-ns#" inkscape:version="0.48.2 r9819" sodipodi:docname="AppIconTemplate.svg"
	 xmlns="http://www.w3.org/2000/svg" xmlns:xlink="http://www.w3.org/1999/xlink" x="0px" y="0px" width="1024px" height="1024px"
	 viewBox="0 0 1024 1024" enable-background="new 0 0 1024 1024" xml:space="preserve">
<defs>
	
	
		<inkscape:perspective  inkscape:vp_y="0 : 1000 : 0" id="perspective4094" inkscape:vp_z="1024 : 512 : 1" sodipodi:type="inkscape:persp3d" inkscape:vp_x="0 : 512 : 1" inkscape:persp3d-origin="512 : 341.33333 : 1">
		</inkscape:perspective>
</defs>
<sodipodi:namedview  inkscape:cx="1052.2646" borderopacity="1.0" showgrid="false" showguides="true" pagecolor="#ffffff" fit-margin-left="0" showborder="false" fit-margin-top="0" inkscape:zoom="0.64" borderlayer="true" inkscape:cy="508.89593" bordercolor="#666666" id="base" fit-margin-bottom="0" inkscape:pageshadow="2" inkscape:window-y="0" inkscape:window-x="36" inkscape:guide-bbox="true" fit-margin-right="0" inkscape:document-units="px" inkscape:window-width="1920" inkscape:showpageshadow="false" inkscape:pageopacity="0.0" inkscape:current-layer="layer2" inkscape:window-maximized="0" inkscape:window-height="1036">
	<sodipodi:guide  position="-10.429825,956.71547" orientation="0,1" id="guide3101"></sodipodi:guide>
	<sodipodi:guide  position="956.5625,59.8125" orientation="1,0" id="guide3103"></sodipodi:guide>
	<sodipodi:guide  position="1246.875,315.625" orientation="0,1" id="guide3105"></sodipodi:guide>
	<sodipodi:guide  position="67.351921,64.523494" orientation="1,0" id="guide3107"></sodipodi:guide>
	<sodipodi:guide  position="961.5,67.5" orientation="0,1" id="guide3109"></sodipodi:guide>
	<sodipodi:guide  position="319.08193,67.707547" orientation="1,0" id="guide3111"></sodipodi:guide>
	<sodipodi:guide  position="511.68014,67.707547" orientation="1,0" id="guide3113"></sodipodi:guide>
	<sodipodi:guide  position="706.1875,64.734375" orientation="1,0" id="guide3115"></sodipodi:guide>
	<sodipodi:guide  position="-21.213203,1024" orientation="0,1" id="guide3117"></sodipodi:guide>
	<sodipodi:guide  position="0,0" orientation="0,1" id="guide3119"></sodipodi:guide>
	<sodipodi:guide  position="0,1042.6289" orientation="1,0" id="guide3121"></sodipodi:guide>
	<sodipodi:guide  position="-6.8942911,705" orientation="0,1" id="guide3123"></sodipodi:guide>
	<sodipodi:guide  position="1024,1037.75" orientation="1,0" id="guide3125"></sodipodi:guide>
	<sodipodi:guide  position="-27.223611,512.65241" orientation="0,1" id="guide3127"></sodipodi:guide>
	<inkscape:grid  type="xygrid" empspacing="5" enabled="true" visible="true" id="grid4235" snapvisiblegridlinesonly="true">
		</inkscape:grid>
	<sodipodi:guide  position="511.68014,430.8932" orientation="1,0" id="guide4003"></sodipodi:guide>
</sodipodi:namedview>
<g id="layer5" inkscape:label="Background" inkscape:groupmode="layer" sodipodi:insensitive="true">
	<rect id="rect4108" width="1024" height="1024"/>
</g>
<g id="layer1" transform="translate(50.25,211.52169)" inkscape:label="BORDER" inkscape:groupmode="layer" sodipodi:insensitive="true">
	<path id="path5" inkscape:connector-curvature="0" fill="none" stroke="#000000" d="M301.954-211.522h319.592
		c101.415,0,152.123,0,206.708,17.26c59.598,21.691,106.545,68.639,128.236,128.236c17.26,54.585,17.26,105.293,17.26,206.708
		v319.591c0,101.415,0,152.123-17.26,206.708c-21.691,59.598-68.639,106.545-128.236,128.235
		c-54.585,17.261-105.293,17.261-206.708,17.261H301.954c-101.415,0-152.123,0-206.708-17.261
		C35.648,773.527-11.299,726.58-32.99,666.982c-17.26-54.585-17.26-105.293-17.26-206.708V140.683
		c0-101.416,0-152.124,17.26-206.708c21.691-59.598,68.639-106.545,128.236-128.236
		C149.831-211.522,200.539-211.522,301.954-211.522L301.954-211.522"/>
</g>
<g id="layer6" inkscape:label="MASK" inkscape:groupmode="layer">
	<path id="path4146" sodipodi:nodetypes="csssssssssssccc" inkscape:connector-curvature="0" fill="#FFFFFF" d="M-0.035,708.406
		c0.056,38.758,0.616,71.021,3.489,100.186c0.875,8.892,2.023,17.507,3.365,25.913c2.729,17.102,6.251,30.632,10.625,44.629
		c0.983,3.146,2.344,6.009,3.547,8.898c4.955,11.898,10.442,22.625,16.752,32.229c7.482,11.392,16.591,23.442,26.69,33.797
		c11.282,11.566,22.163,20.606,34.238,28.785c7.754,5.252,15.167,9.811,23.655,13.919c3.343,1.619,6.784,3.259,10.456,4.875
		c6.01,2.647,12.647,5.24,20.382,7.433c16.338,4.627,37.836,9.506,66.674,11.785c26.049,2.06,58.072,3.219,99.208,3.176H-0.035
		V708.406z"/>
	<path id="path4146-5" sodipodi:nodetypes="cssssssssccc" inkscape:connector-curvature="0" fill="#FFFFFF" d="M1024,708.375
		c-0.028,33.524-0.364,57.519-2.188,86.13c-2.144,33.632-7.678,62.031-16.132,85.828c-5.157,14.519-11.403,27.323-18.63,38.558
		c-10.394,16.158-22.649,31.168-36.896,44.466c-6.864,6.406-13.97,11.815-21.918,17.501c-10.375,7.42-20.227,13.063-32.184,18.639
		c-10.689,4.984-23.165,9.5-39.904,13.451c-11.584,2.733-25.212,5.338-41.704,7.072c-27.233,2.867-62.178,3.412-108.26,3.98H1024
		V708.375z"/>
	<path id="path4146-5-3" sodipodi:nodetypes="cssssssssssccc" inkscape:connector-curvature="0" fill="#FFFFFF" d="
		M1023.957,318.263c0.184-39.141-0.3-73.559-3.477-103.939c-1.41-13.5-3.854-26.311-5.955-38.188
		c-3.618-20.458-10.116-38.447-17.297-52.709c-2.128-4.226-3.906-7.555-5.777-10.816c-1.498-2.612-3.055-5.182-4.895-8.136
		c-1.96-3.148-3.873-6.196-5.992-9.197c-5.681-8.043-12.162-15.926-18.909-23.193c-10.065-10.84-21.254-20.982-33.882-29.384
		c-18.041-12.004-33.302-21.308-61.688-29.083c-12.9-3.534-28.684-6.869-48.659-9.227C790.092,1.162,754.657,0.081,706.188,0H1024
		L1023.957,318.263z"/>
	<path id="path4146-5-3-7" sodipodi:nodetypes="csssssccc" inkscape:connector-curvature="0" fill="#FFFFFF" d="M0,318.48
		c0.044-54.265,1.952-103.053,8.798-140.022c5.957-32.164,15.842-54.479,29.091-75.078C53.291,79.435,73.015,58.195,97.25,42.031
		c14.554-9.707,27.235-16.721,46.141-23.976c9.862-3.784,21.35-6.586,34.697-9.183C208.323,2.991,250.7-0.292,319.082,0H0V318.48z"
		/>
</g>
<g id="layer2" transform="translate(0,-2.2054443)" inkscape:label="GUIDES" inkscape:groupmode="layer" display="none">
	<path id="path4024" inkscape:connector-curvature="0" display="inline" fill="none" stroke="#000000" stroke-width="2" d="
		M0.998,321.035v386.277"/>
	
		<path id="path3129" sodipodi:ry="138" sodipodi:rx="138" sodipodi:cy="298.86218" sodipodi:cx="462.32144" sodipodi:type="arc" display="inline" fill="none" stroke="#000000" stroke-width="1.0057" d="
		M786.009,513.694c0,151.553-122.878,274.408-274.454,274.408S237.1,665.245,237.1,513.694c0-151.553,122.878-274.41,274.455-274.41
		S786.009,362.141,786.009,513.694z"/>
	
		<path id="path3129-9" sodipodi:ry="138" sodipodi:rx="138" sodipodi:cy="298.86218" sodipodi:cx="462.32144" sodipodi:type="arc" display="inline" fill="none" stroke="#000000" stroke-width="0.6209" d="
		M956.551,514.123c0,245.502-199.04,444.52-444.567,444.52c-245.528,0-444.567-199.018-444.567-444.52
		c0-245.501,199.04-444.521,444.567-444.521C757.511,69.604,956.551,268.622,956.551,514.123z"/>
	
		<path id="path4011" sodipodi:nodetypes="cc" inkscape:connector-curvature="0" display="inline" fill="none" stroke="#000000" stroke-width="2" d="
		M67.352,69.49l889.21,889.215"/>
	<path id="path4028" inkscape:connector-curvature="0" display="inline" fill="none" stroke="#000000" stroke-width="2" d="
		M0.998,707.312h1022.003"/>
	<path id="path4030" inkscape:connector-curvature="0" display="inline" fill="none" stroke="#000000" stroke-width="2" d="
		M0.998,513.693h1022.003"/>
	<path id="path4032" inkscape:connector-curvature="0" display="inline" fill="none" stroke="#000000" stroke-width="2" d="
		M0.998,321.035h1022.003"/>
	
		<path id="path4034" sodipodi:nodetypes="cc" inkscape:connector-curvature="0" display="inline" fill="none" stroke="#000000" stroke-width="2" d="
		M319.082,1026.205v-1024"/>
	
		<path id="path4036" sodipodi:nodetypes="cc" inkscape:connector-curvature="0" display="inline" fill="none" stroke="#000000" stroke-width="2" d="
		M511.68,2.205v1024"/>
	
		<path id="path4038" sodipodi:nodetypes="cc" inkscape:connector-curvature="0" display="inline" fill="none" stroke="#000000" stroke-width="2" d="
		M706.188,1026.205v-1024"/>
	
		<path id="path4001" sodipodi:nodetypes="cc" inkscape:connector-curvature="0" display="inline" fill="none" stroke="#000000" stroke-width="2" d="
		M67.352,958.705L956.563,69.49"/>
	
		<path id="path4003" sodipodi:nodetypes="cc" inkscape:connector-curvature="0" display="inline" fill="none" stroke="#000000" stroke-width="2" d="
		M956.563,69.49v889.215"/>
	
		<path id="path4009" sodipodi:nodetypes="cc" inkscape:connector-curvature="0" display="inline" fill="none" stroke="#000000" stroke-width="2" d="
		M67.352,69.49h889.21"/>
	
		<path id="path4007" sodipodi:nodetypes="cc" inkscape:connector-curvature="0" display="inline" fill="none" stroke="#000000" stroke-width="2" d="
		M67.352,958.705V69.49"/>
	
		<path id="path4005" sodipodi:nodetypes="cc" inkscape:connector-curvature="0" display="inline" fill="none" stroke="#000000" stroke-width="2" d="
		M956.563,958.705H67.352"/>
	
		<path id="path3129-7" sodipodi:ry="138" sodipodi:rx="138" sodipodi:cy="298.86218" sodipodi:cx="462.32144" sodipodi:type="arc" display="inline" fill="none" stroke="#000000" stroke-width="1.4291" d="
		M706.188,513.915c0,106.431-86.655,192.71-193.553,192.71c-106.896,0-193.553-86.279-193.553-192.71
		c0-106.432,86.656-192.71,193.553-192.71C619.532,321.205,706.188,407.485,706.188,513.915z"/>
</g>
<path fill="none" d="M438.51,860.72c-12.684-21.212-27.161-36.229-23.8-62.666"/>
<g>
	<g>
		<g>
			<g>
				<path fill="#FFFFFF" d="M752.479,85.562c-65.43,52.275-107.005,99.607-142.276,140.3
					c-34.961,40.964-64.938,76.605-98.019,109.788c-33.205-33.167-63.278-68.789-98.33-109.75
					c-35.363-40.688-77.022-88.032-142.592-140.342c13.763,75.409,13.031,147.749-21.927,217.219
					c-34.213,70.01-103.697,137.756-217.435,218.945c14.71,82.49,81.732,145.822,171.888,207.432
					c88.666,61.656,205.938,126.904,308.085,212.923c102.149-86.019,219.424-151.266,308.091-212.923
					c90.158-61.607,157.187-124.938,171.896-207.432c-113.742-81.188-183.227-148.936-217.441-218.944
					C739.457,233.311,738.721,160.972,752.479,85.562z M130.981,503.96c96.451-63.039,156.289-116.497,197.793-171.124
					c21.128,55.429,39.749,104.431,68.124,151.211c27.94,46.803,65.563,91.12,114.985,137.997
					c49.42-46.873,87.042-91.188,114.98-137.985c28.376-46.775,46.995-95.772,68.122-151.194
					c41.516,54.634,101.371,108.102,197.854,171.155c-20.451,65.819-68.523,120.759-136.181,174.341
					c-66.909,53.65-154.645,107.958-244.775,175.257C421.755,786.309,334.02,731.991,267.123,678.33
					C199.474,624.738,151.418,569.789,130.981,503.96z"/>
			</g>
		</g>
	</g>
</g>
</svg>
